<svg xmlns="http://www.w3.org/2000/svg" version="1.1" xmlns:xlink="http://www.w3.org/1999/xlink" width="1000" height="1000"><metadata><rdf:RDF xmlns:rdf="http://www.w3.org/1999/02/22-rdf-syntax-ns#" xmlns:dc="http://purl.org/dc/elements/1.1/"><rdf:Description><dc:creator>RealFaviconGenerator</dc:creator><dc:source>https://realfavicongenerator.net</dc:source></rdf:Description></rdf:RDF></metadata><g clip-path="url(#SvgjsClipPath1167)"><rect width="1000" height="1000" fill="#ffffff"></rect><g transform="matrix(4.355637828714543,0,0,4.355637828714543,109.34284314259264,100)"><svg xmlns="http://www.w3.org/2000/svg" id="Layer_2" data-name="Layer 2" viewBox="0 0 179.38 183.67" width="179.38" height="183.67"><g id="Layer_1-2" data-name="Layer 1">
    <path d="M21.51,150.24c-1.55-4.88-2.32-10.37-2.32-16.48v-65.68c0-3.28.39-6.81,1.16-10.6.77-3.78,1.98-7.52,3.62-11.21,1.64-3.69,3.78-7.22,6.43-10.6,2.64-3.37,5.81-6.36,9.5-8.96,3.69-2.6,7.95-4.67,12.78-6.22,4.83-1.55,10.3-2.32,16.41-2.32h85.19v-9.52c0-4.78-3.87-8.65-8.65-8.65H57.7c-7.06,0-13.39.9-18.97,2.69-5.59,1.79-10.51,4.19-14.78,7.19-4.27,3-7.93,6.46-10.99,10.36-3.06,3.9-5.53,7.98-7.43,12.25-1.9,4.27-3.3,8.59-4.19,12.96-.9,4.37-1.34,8.46-1.34,12.25v52.75c0,6.11.77,11.6,2.32,16.48,1.55,4.88,3.62,9.16,6.22,12.85,2.6,3.69,5.58,6.84,8.96,9.43,1.57,1.21,3.18,2.3,4.82,3.31-.28-.75-.56-1.5-.81-2.28Z"></path>
    <path d="M179.38,175.02c0,4.78-3.87,8.65-8.65,8.65h-95.73c-3.28,0-6.81-.39-10.6-1.16-3.78-.77-7.52-1.98-11.21-3.62-3.69-1.64-7.23-3.76-10.6-6.36-3.37-2.6-6.36-5.74-8.96-9.43-2.6-3.69-4.67-7.98-6.22-12.85-1.55-4.88-2.32-10.37-2.32-16.48v-60.55c0-3.28.39-6.81,1.16-10.6.77-3.78,1.98-7.52,3.62-11.21,1.64-3.69,3.78-7.22,6.43-10.6,2.64-3.37,5.81-6.36,9.5-8.96,3.69-2.6,7.95-4.67,12.78-6.22,4.83-1.55,10.3-2.32,16.41-2.32h95.73c4.78,0,8.65,3.87,8.65,8.65v18.25c0,4.78-3.87,8.65-8.65,8.65h-95.73c-4.65,0-8.2,1.23-10.67,3.69-2.46,2.46-3.69,6.11-3.69,10.94v60.27c0,4.56,1.25,8.09,3.76,10.6,2.51,2.51,6.04,3.76,10.6,3.76h95.73c4.78,0,8.65,3.87,8.65,8.65v18.25Z"></path>
    <path d="M145.63,124.81h-79.25v3.82c0,4.56,1.25,8.09,3.76,10.6,2.51,2.51,6.04,3.76,10.6,3.76h73.54v-9.52c0-4.78-3.87-8.65-8.65-8.65Z"></path>
  </g></svg></g></g><defs><clipPath id="SvgjsClipPath1167"><rect width="1000" height="1000" x="0" y="0" rx="200" ry="200"></rect></clipPath></defs></svg>