<?xml version="1.0" encoding="UTF-8"?>
<svg id="Layer_2" data-name="Layer 2" xmlns="http://www.w3.org/2000/svg" viewBox="0 0 101.07 103.49">
  <g id="Layer_1-2" data-name="Layer 1">
    <g>
      <path d="M12.12,84.66c-.87-2.75-1.31-5.84-1.31-9.28v-37.01c0-1.85.22-3.84.65-5.97.44-2.13,1.12-4.24,2.04-6.32.92-2.08,2.13-4.07,3.62-5.97,1.49-1.9,3.27-3.58,5.35-5.05,2.08-1.46,4.48-2.63,7.2-3.51,2.72-.87,5.8-1.31,9.25-1.31h48v-5.37c0-2.69-2.18-4.87-4.87-4.87h-49.55c-3.98,0-7.54.51-10.69,1.51-3.15,1.01-5.92,2.36-8.33,4.05-2.41,1.69-4.47,3.64-6.19,5.83-1.72,2.2-3.12,4.5-4.19,6.9-1.07,2.41-1.86,4.84-2.36,7.3-.51,2.47-.76,4.77-.76,6.9v29.72c0,3.44.44,6.54,1.31,9.28.87,2.75,2.04,5.16,3.51,7.24,1.46,2.08,3.15,3.85,5.05,5.32.88.68,1.79,1.3,2.71,1.86-.16-.42-.32-.84-.46-1.29Z" style="fill: #fcfcfc;"/>
      <path d="M101.07,98.62c0,2.69-2.18,4.87-4.87,4.87h-53.94c-1.85,0-3.84-.22-5.97-.65-2.13-.44-4.24-1.12-6.32-2.04-2.08-.92-4.07-2.12-5.97-3.58-1.9-1.46-3.58-3.24-5.05-5.32-1.46-2.08-2.63-4.49-3.51-7.24-.87-2.75-1.31-5.84-1.31-9.28v-34.12c0-1.85.22-3.84.65-5.97.44-2.13,1.12-4.24,2.04-6.32.92-2.08,2.13-4.07,3.62-5.97,1.49-1.9,3.27-3.58,5.35-5.05,2.08-1.46,4.48-2.63,7.2-3.51,2.72-.87,5.8-1.31,9.25-1.31h53.94c2.69,0,4.87,2.18,4.87,4.87v10.28c0,2.69-2.18,4.87-4.87,4.87h-53.94c-2.62,0-4.62.69-6.01,2.08-1.39,1.39-2.08,3.44-2.08,6.16v33.96c0,2.57.71,4.56,2.12,5.97,1.41,1.41,3.4,2.12,5.97,2.12h53.94c2.69,0,4.87,2.18,4.87,4.87v10.28Z" style="fill: #fcfcfc;"/>
    </g>
  </g>
</svg>